<!DOCTYPE svg PUBLIC "-//W3C//DTD SVG 1.1//EN" "http://www.w3.org/Graphics/SVG/1.1/DTD/svg11.dtd">
<!-- Uploaded to: SVG Repo, www.svgrepo.com, Transformed by: SVG Repo Mixer Tools -->
<svg width="800px" height="800px" viewBox="0 0 20 20" xmlns="http://www.w3.org/2000/svg" fill="#000000">
<g id="SVGRepo_bgCarrier" stroke-width="0"/>
<g id="SVGRepo_tracerCarrier" stroke-linecap="round" stroke-linejoin="round"/>
<g id="SVGRepo_iconCarrier"> <g id="add-user-5" transform="translate(-2 -2)"> <circle id="secondary" fill="#ff682c" cx="5" cy="5" r="5" transform="translate(6 3)"/> <path id="primary" d="M15,13.1a4.71,4.71,0,0,0-1-.1H8a5,5,0,0,0-5,5v1s2,2,8,2a22,22,0,0,0,3-.19,4.542,4.542,0,0,0,1-.17" fill="none" stroke="#ffffff" stroke-linecap="round" stroke-linejoin="round" stroke-width="2"/> <path id="primary-2" data-name="primary" d="M17,17h4m-2-2v4M11,3a5,5,0,1,0,5,5A5,5,0,0,0,11,3Z" fill="none" stroke="#ffffff" stroke-linecap="round" stroke-linejoin="round" stroke-width="2"/> </g> </g>
</svg>