<svg id="visual" viewBox="0 0 1920 1080" width="1920" height="1080" xmlns="http://www.w3.org/2000/svg" xmlns:xlink="http://www.w3.org/1999/xlink" version="1.1"><rect x="0" y="0" width="1920" height="1080" ></rect><path d="M0 670L45.7 667.2C91.3 664.3 182.7 658.7 274.2 658.8C365.7 659 457.3 665 548.8 685.7C640.3 706.3 731.7 741.7 823 738.3C914.3 735 1005.7 693 1097 673.8C1188.3 654.7 1279.7 658.3 1371.2 689.5C1462.7 720.7 1554.3 779.3 1645.8 783.5C1737.3 787.7 1828.7 737.3 1874.3 712.2L1920 687L1920 1081L1874.3 1081C1828.7 1081 1737.3 1081 1645.8 1081C1554.3 1081 1462.7 1081 1371.2 1081C1279.7 1081 1188.3 1081 1097 1081C1005.7 1081 914.3 1081 823 1081C731.7 1081 640.3 1081 548.8 1081C457.3 1081 365.7 1081 274.2 1081C182.7 1081 91.3 1081 45.7 1081L0 1081Z" fill="#ff682c"></path><path d="M0 734L45.7 757.7C91.3 781.3 182.7 828.7 274.2 850.3C365.7 872 457.3 868 548.8 844C640.3 820 731.7 776 823 770.5C914.3 765 1005.7 798 1097 815C1188.3 832 1279.7 833 1371.2 844.5C1462.7 856 1554.3 878 1645.8 875C1737.3 872 1828.7 844 1874.3 830L1920 816L1920 1081L1874.3 1081C1828.7 1081 1737.3 1081 1645.8 1081C1554.3 1081 1462.7 1081 1371.2 1081C1279.7 1081 1188.3 1081 1097 1081C1005.7 1081 914.3 1081 823 1081C731.7 1081 640.3 1081 548.8 1081C457.3 1081 365.7 1081 274.2 1081C182.7 1081 91.3 1081 45.7 1081L0 1081Z" fill="#f26229"></path><path d="M0 920L45.7 915.8C91.3 911.7 182.7 903.3 274.2 882.7C365.7 862 457.3 829 548.8 825.7C640.3 822.3 731.7 848.7 823 872C914.3 895.3 1005.7 915.7 1097 916.5C1188.3 917.3 1279.7 898.7 1371.2 878.5C1462.7 858.3 1554.3 836.7 1645.8 836.3C1737.3 836 1828.7 857 1874.3 867.5L1920 878L1920 1081L1874.3 1081C1828.7 1081 1737.3 1081 1645.8 1081C1554.3 1081 1462.7 1081 1371.2 1081C1279.7 1081 1188.3 1081 1097 1081C1005.7 1081 914.3 1081 823 1081C731.7 1081 640.3 1081 548.8 1081C457.3 1081 365.7 1081 274.2 1081C182.7 1081 91.3 1081 45.7 1081L0 1081Z" fill="#e55d27"></path><path d="M0 944L45.7 947.5C91.3 951 182.7 958 274.2 962C365.7 966 457.3 967 548.8 965C640.3 963 731.7 958 823 945.3C914.3 932.7 1005.7 912.3 1097 902.8C1188.3 893.3 1279.7 894.7 1371.2 903.3C1462.7 912 1554.3 928 1645.8 941.8C1737.3 955.7 1828.7 967.3 1874.3 973.2L1920 979L1920 1081L1874.3 1081C1828.7 1081 1737.3 1081 1645.8 1081C1554.3 1081 1462.7 1081 1371.2 1081C1279.7 1081 1188.3 1081 1097 1081C1005.7 1081 914.3 1081 823 1081C731.7 1081 640.3 1081 548.8 1081C457.3 1081 365.7 1081 274.2 1081C182.7 1081 91.3 1081 45.7 1081L0 1081Z" fill="#d85825"></path><path d="M0 1007L45.7 1006.7C91.3 1006.3 182.7 1005.7 274.2 999C365.7 992.3 457.3 979.7 548.8 978.8C640.3 978 731.7 989 823 991.3C914.3 993.7 1005.7 987.3 1097 978.2C1188.3 969 1279.7 957 1371.2 962.2C1462.7 967.3 1554.3 989.7 1645.8 1002.5C1737.3 1015.3 1828.7 1018.7 1874.3 1020.3L1920 1022L1920 1081L1874.3 1081C1828.7 1081 1737.3 1081 1645.8 1081C1554.3 1081 1462.7 1081 1371.2 1081C1279.7 1081 1188.3 1081 1097 1081C1005.7 1081 914.3 1081 823 1081C731.7 1081 640.3 1081 548.8 1081C457.3 1081 365.7 1081 274.2 1081C182.7 1081 91.3 1081 45.7 1081L0 1081Z" fill="#cc5323"></path></svg>