<svg version="1.1" xmlns="http://www.w3.org/2000/svg" xmlns:xlink="http://www.w3.org/1999/xlink" x="0px" y="0px"
	 viewBox="0 0 576.44 574.24" style="enable-background:new 0 0 576.44 574.24;" xml:space="preserve">
<style type="text/css">
	.st0{display:none;}
	.st1{display:inline;}
	.st2{fill:#CC8D39;}
	.st3{display:inline;fill:#CC8D39;}
	.st4{fill:url(#SVGID_1_);}
	.st5{fill:url(#SVGID_00000047034726313832921470000013236623200713873813_);}
	.st6{display:inline;fill:url(#SVGID_00000072982755694229281070000006960400795895638455_);}
	.st7{fill:url(#SVGID_00000015337718769163672150000012831198431037637274_);}
</style>
<g id="Capa_6" class="st0">
	<rect x="-300.88" y="-24.44" class="st1" width="108.44" height="117.07"/>
</g>
<g id="Letra_x5F_U" class="st0">
	<g class="st1">
		<path class="st2" d="M-268.91,16.69c-0.05,11.23-0.09,22.46-0.14,33.7c0,12.32,5.47,17.54,12.81,17.54
			c8.16,0,13.38-5.38,13.38-17.54V17.84h7.18V49.9c0,16.88-8.89,23.82-20.8,23.82c-11.26,0-19.74-6.44-19.74-23.49
			c0.17-11.18,0.34-22.36,0.52-33.53C-273.44,16.69-271.17,16.69-268.91,16.69z"/>
	</g>
</g>
<g id="Letra_x5F_P" class="st0">
	<path class="st3" d="M-236.27,50.6c2.36,0.36,8.19,0.46,12.62-0.57c3.63-0.85,5.38-1.21,8.41-4.65c4.01-4.55,3.85-10.66,3.82-12.07
		c-0.03-1.33-0.16-7.42-4.47-11.5c-1.99-1.88-4-2.5-6.62-3.32c-2.18-0.67-4.43-1.05-13.92-1.13c-2.66-0.02-4.87-0.01-6.43,0
		c0,10.95,0,21.9,0,32.85C-240.66,50.34-238.47,50.47-236.27,50.6z M-230.37,45.38c-2.09,0-3.82-0.16-5.19-0.57V23.44
		c1.08-0.33,3.17-0.57,5.91-0.57c6.92,0,11.47,3.51,11.47,10.77C-218.18,41.22-222.79,45.38-230.37,45.38z"/>
</g>
<g id="Capa_5" class="st0">
	<g class="st1">
		<linearGradient id="SVGID_1_" gradientUnits="userSpaceOnUse" x1="-272.561" y1="2.5989" x2="-272.561" y2="16.4147">
			<stop  offset="0" style="stop-color:#FFFFFF"/>
			<stop  offset="0.8899" style="stop-color:#CC8D39"/>
		</linearGradient>
		<path class="st4" d="M-272.8,2.71l-10.4,13.22c-0.15,0.2-0.01,0.48,0.23,0.48h20.81c0.25,0,0.39-0.29,0.23-0.48l-10.4-13.22
			C-272.45,2.56-272.68,2.56-272.8,2.71z"/>
	</g>
	<g class="st1">
		
			<linearGradient id="SVGID_00000126320544177708109560000012382243497323560589_" gradientUnits="userSpaceOnUse" x1="-272.561" y1="2.5989" x2="-272.561" y2="16.4147">
			<stop  offset="0" style="stop-color:#FFFFFF"/>
			<stop  offset="0" style="stop-color:#CC8D39"/>
		</linearGradient>
		<path style="fill:url(#SVGID_00000126320544177708109560000012382243497323560589_);" d="M-272.8,2.71l-10.4,13.22
			c-0.15,0.2-0.01,0.48,0.23,0.48h20.81c0.25,0,0.39-0.29,0.23-0.48l-10.4-13.22C-272.45,2.56-272.68,2.56-272.8,2.71z"/>
	</g>
</g>
<g id="Capa_8" class="st0">
</g>
<g id="Capa_10" class="st0">
	
		<linearGradient id="SVGID_00000169550422892585257810000011997226612801868692_" gradientUnits="userSpaceOnUse" x1="-227.1365" y1="17.3428" x2="-227.1365" y2="50.8523">
		<stop  offset="0" style="stop-color:#FFFFFF"/>
		<stop  offset="0.2196" style="stop-color:#D1974B"/>
		<stop  offset="0.4832" style="stop-color:#CC8D39"/>
	</linearGradient>
	<path style="display:inline;fill:url(#SVGID_00000169550422892585257810000011997226612801868692_);" d="M-236.27,50.6
		c2.36,0.36,8.19,0.46,12.62-0.57c3.63-0.85,5.38-1.21,8.41-4.65c4.01-4.55,3.85-10.66,3.82-12.07c-0.03-1.33-0.16-7.42-4.47-11.5
		c-1.99-1.88-4-2.5-6.62-3.32c-2.18-0.67-4.43-1.05-13.92-1.13c-2.66-0.02-4.87-0.01-6.43,0c0,10.95,0,21.9,0,32.85
		C-240.66,50.34-238.47,50.47-236.27,50.6z M-230.37,45.38c-2.09,0-3.82-0.16-5.19-0.57V23.44c1.08-0.33,3.17-0.57,5.91-0.57
		c6.92,0,11.47,3.51,11.47,10.77C-218.18,41.22-222.79,45.38-230.37,45.38z"/>
</g>
<g id="Capa_9" class="st0">
</g>
<g id="Capa_4">
	
		<linearGradient id="SVGID_00000142157646033943189280000015965327618510087345_" gradientUnits="userSpaceOnUse" x1="292.3724" y1="147.3476" x2="292.3724" y2="477.189">
		<stop  offset="0" style="stop-color:#CC8D39"/>
		<stop  offset="0.0616" style="stop-color:#CC8D39"/>
		<stop  offset="0.0765" style="stop-color:#CC8D39"/>
		<stop  offset="0.2373" style="stop-color:#CC8D39"/>
		<stop  offset="0.3402" style="stop-color:#CC8D39"/>
	</linearGradient>
	<path style="fill:url(#SVGID_00000142157646033943189280000015965327618510087345_);" d="M459.63,260.72
		c-0.13-6.17-0.72-34.5-20.77-53.45c-9.26-8.75-18.57-11.63-30.77-15.41c-10.12-3.13-20.58-4.89-64.7-5.26
		c-12.36-0.11-22.64-0.06-29.86,0c0,10.31,0,20.62,0,30.93v121.74v29.51c0,56.48-24.26,81.5-62.17,81.5
		c-34.12,0-59.51-24.26-59.51-81.5c0.21-52.08,0.42-104.15,0.63-156.23h30.75c1.15,0,1.8-1.33,1.1-2.24l-48.38-62.43
		c-0.56-0.72-1.64-0.72-2.19,0l-48.38,62.43c-0.71,0.91-0.06,2.24,1.1,2.24h34.42c-0.8,51.82-1.6,103.65-2.4,155.47
		c0,79.22,39.42,109.17,91.73,109.17c55.34,0,96.66-32.22,96.66-110.69v-25.07c12.25,1.37,36.86,1.45,55.9-2.98
		c16.89-3.93,24.99-5.6,39.09-21.63C460.49,295.66,459.77,267.28,459.63,260.72z M371.59,316.82c-9.72,0-17.76-0.76-24.13-2.65
		v-99.32c5.03-1.52,14.75-2.65,27.49-2.65c32.18,0,53.29,16.3,53.29,50.04C428.24,297.49,406.79,316.82,371.59,316.82z"/>
</g>
</svg>