<svg id="visual" viewBox="0 0 7200 7200" width="7200" height="7200" xmlns="http://www.w3.org/2000/svg" xmlns:xlink="http://www.w3.org/1999/xlink" version="1.1"><rect x="0" y="0" width="7200" height="7200" fill="#2b303a"></rect><path d="M0 3950L150 3888.5C300 3827 600 3704 900 3820C1200 3936 1500 4291 1800 4404.8C2100 4518.7 2400 4391.3 2700 4244.2C3000 4097 3300 3930 3600 3986.2C3900 4042.3 4200 4321.7 4500 4419.8C4800 4518 5100 4435 5400 4283.3C5700 4131.7 6000 3911.3 6300 3834.3C6600 3757.3 6900 3823.7 7050 3856.8L7200 3890L7200 7201L7050 7201C6900 7201 6600 7201 6300 7201C6000 7201 5700 7201 5400 7201C5100 7201 4800 7201 4500 7201C4200 7201 3900 7201 3600 7201C3300 7201 3000 7201 2700 7201C2400 7201 2100 7201 1800 7201C1500 7201 1200 7201 900 7201C600 7201 300 7201 150 7201L0 7201Z" fill="#ff682c"></path><path d="M0 4430L150 4486.2C300 4542.3 600 4654.7 900 4755.7C1200 4856.7 1500 4946.3 1800 4876.7C2100 4807 2400 4578 2700 4581.5C3000 4585 3300 4821 3600 4869.8C3900 4918.7 4200 4780.3 4500 4703.7C4800 4627 5100 4612 5400 4573.7C5700 4535.3 6000 4473.7 6300 4485.8C6600 4498 6900 4584 7050 4627L7200 4670L7200 7201L7050 7201C6900 7201 6600 7201 6300 7201C6000 7201 5700 7201 5400 7201C5100 7201 4800 7201 4500 7201C4200 7201 3900 7201 3600 7201C3300 7201 3000 7201 2700 7201C2400 7201 2100 7201 1800 7201C1500 7201 1200 7201 900 7201C600 7201 300 7201 150 7201L0 7201Z" fill="#c74270"></path><path d="M0 5641L150 5603.7C300 5566.3 600 5491.7 900 5478.3C1200 5465 1500 5513 1800 5536.5C2100 5560 2400 5559 2700 5493.8C3000 5428.7 3300 5299.3 3600 5264.2C3900 5229 4200 5288 4500 5391.5C4800 5495 5100 5643 5400 5759.3C5700 5875.7 6000 5960.3 6300 5864.5C6600 5768.7 6900 5492.3 7050 5354.2L7200 5216L7200 7201L7050 7201C6900 7201 6600 7201 6300 7201C6000 7201 5700 7201 5400 7201C5100 7201 4800 7201 4500 7201C4200 7201 3900 7201 3600 7201C3300 7201 3000 7201 2700 7201C2400 7201 2100 7201 1800 7201C1500 7201 1200 7201 900 7201C600 7201 300 7201 150 7201L0 7201Z" fill="#664372"></path><path d="M0 6185L150 6163.2C300 6141.3 600 6097.7 900 6175C1200 6252.3 1500 6450.7 1800 6490.5C2100 6530.3 2400 6411.7 2700 6391.5C3000 6371.3 3300 6449.7 3600 6389.8C3900 6330 4200 6132 4500 6081C4800 6030 5100 6126 5400 6255.8C5700 6385.7 6000 6549.3 6300 6497C6600 6444.7 6900 6176.3 7050 6042.2L7200 5908L7200 7201L7050 7201C6900 7201 6600 7201 6300 7201C6000 7201 5700 7201 5400 7201C5100 7201 4800 7201 4500 7201C4200 7201 3900 7201 3600 7201C3300 7201 3000 7201 2700 7201C2400 7201 2100 7201 1800 7201C1500 7201 1200 7201 900 7201C600 7201 300 7201 150 7201L0 7201Z" fill="#2b303a"></path></svg>